<mxfile host="app.diagrams.net" agent="Mozilla/5.0 (Macintosh; Intel Mac OS X 10_15_7) AppleWebKit/537.36 (KHTML, like Gecko) Chrome/141.0.0.0 Safari/537.36" version="28.2.5">
  <diagram name="Page-1" id="UjOTRW7vhjB5Is7gNjRP">
    <mxGraphModel dx="1603" dy="1208" grid="1" gridSize="10" guides="1" tooltips="1" connect="1" arrows="1" fold="1" page="1" pageScale="1" pageWidth="1169" pageHeight="827" math="0" shadow="0">
      <root>
        <mxCell id="0" />
        <mxCell id="1" parent="0" />
        <mxCell id="l6LLySE8dGEOb2_Vdk8C-20" value="" style="group" vertex="1" connectable="0" parent="1">
          <mxGeometry x="10" y="90" width="590" height="160" as="geometry" />
        </mxCell>
        <mxCell id="l6LLySE8dGEOb2_Vdk8C-1" value="" style="rounded=1;whiteSpace=wrap;html=1;shadow=0;" vertex="1" parent="l6LLySE8dGEOb2_Vdk8C-20">
          <mxGeometry width="590" height="160" as="geometry" />
        </mxCell>
        <mxCell id="l6LLySE8dGEOb2_Vdk8C-2" value="Onboarding" style="text;html=1;align=center;verticalAlign=middle;whiteSpace=wrap;rounded=0;" vertex="1" parent="l6LLySE8dGEOb2_Vdk8C-20">
          <mxGeometry x="265" y="10" width="60" height="30" as="geometry" />
        </mxCell>
        <mxCell id="B6PUh7vm7_zcToJWxVo1-3" value="" style="edgeStyle=orthogonalEdgeStyle;rounded=0;orthogonalLoop=1;jettySize=auto;html=1;" parent="1" source="B6PUh7vm7_zcToJWxVo1-1" target="B6PUh7vm7_zcToJWxVo1-2" edge="1">
          <mxGeometry relative="1" as="geometry" />
        </mxCell>
        <mxCell id="B6PUh7vm7_zcToJWxVo1-1" value="Store Connect" style="rounded=0;whiteSpace=wrap;html=1;" parent="1" vertex="1">
          <mxGeometry x="200" y="160" width="120" height="60" as="geometry" />
        </mxCell>
        <mxCell id="B6PUh7vm7_zcToJWxVo1-20" value="" style="edgeStyle=orthogonalEdgeStyle;rounded=0;orthogonalLoop=1;jettySize=auto;html=1;" parent="1" source="B6PUh7vm7_zcToJWxVo1-1" target="B6PUh7vm7_zcToJWxVo1-19" edge="1">
          <mxGeometry relative="1" as="geometry">
            <Array as="points">
              <mxPoint x="250" y="260" />
              <mxPoint x="250" y="260" />
            </Array>
          </mxGeometry>
        </mxCell>
        <mxCell id="B6PUh7vm7_zcToJWxVo1-5" value="" style="edgeStyle=orthogonalEdgeStyle;rounded=0;orthogonalLoop=1;jettySize=auto;html=1;" parent="1" source="B6PUh7vm7_zcToJWxVo1-2" target="B6PUh7vm7_zcToJWxVo1-4" edge="1">
          <mxGeometry relative="1" as="geometry" />
        </mxCell>
        <mxCell id="l6LLySE8dGEOb2_Vdk8C-5" style="edgeStyle=orthogonalEdgeStyle;rounded=0;orthogonalLoop=1;jettySize=auto;html=1;" edge="1" parent="1" source="B6PUh7vm7_zcToJWxVo1-2" target="l6LLySE8dGEOb2_Vdk8C-4">
          <mxGeometry relative="1" as="geometry" />
        </mxCell>
        <mxCell id="l6LLySE8dGEOb2_Vdk8C-26" style="edgeStyle=orthogonalEdgeStyle;rounded=0;orthogonalLoop=1;jettySize=auto;html=1;entryX=0.5;entryY=0;entryDx=0;entryDy=0;" edge="1" parent="1" source="B6PUh7vm7_zcToJWxVo1-2" target="l6LLySE8dGEOb2_Vdk8C-25">
          <mxGeometry relative="1" as="geometry">
            <Array as="points">
              <mxPoint x="550" y="190" />
              <mxPoint x="550" y="260" />
              <mxPoint x="620" y="260" />
            </Array>
          </mxGeometry>
        </mxCell>
        <mxCell id="B6PUh7vm7_zcToJWxVo1-2" value="Bank Connect" style="rounded=0;whiteSpace=wrap;html=1;" parent="1" vertex="1">
          <mxGeometry x="400" y="160" width="120" height="60" as="geometry" />
        </mxCell>
        <mxCell id="B6PUh7vm7_zcToJWxVo1-7" style="edgeStyle=orthogonalEdgeStyle;rounded=0;orthogonalLoop=1;jettySize=auto;html=1;" parent="1" source="B6PUh7vm7_zcToJWxVo1-6" target="B6PUh7vm7_zcToJWxVo1-1" edge="1">
          <mxGeometry relative="1" as="geometry" />
        </mxCell>
        <mxCell id="B6PUh7vm7_zcToJWxVo1-6" value="Signup" style="rounded=0;whiteSpace=wrap;html=1;" parent="1" vertex="1">
          <mxGeometry x="20" y="160" width="120" height="60" as="geometry" />
        </mxCell>
        <mxCell id="B6PUh7vm7_zcToJWxVo1-9" value="Plan Builder" style="rounded=0;whiteSpace=wrap;html=1;" parent="1" vertex="1">
          <mxGeometry x="400" y="390" width="120" height="60" as="geometry" />
        </mxCell>
        <mxCell id="B6PUh7vm7_zcToJWxVo1-23" value="" style="edgeStyle=orthogonalEdgeStyle;rounded=0;orthogonalLoop=1;jettySize=auto;html=1;" parent="1" source="B6PUh7vm7_zcToJWxVo1-11" target="B6PUh7vm7_zcToJWxVo1-22" edge="1">
          <mxGeometry relative="1" as="geometry" />
        </mxCell>
        <mxCell id="l6LLySE8dGEOb2_Vdk8C-24" style="edgeStyle=orthogonalEdgeStyle;rounded=0;orthogonalLoop=1;jettySize=auto;html=1;entryX=1;entryY=0.75;entryDx=0;entryDy=0;" edge="1" parent="1" source="B6PUh7vm7_zcToJWxVo1-11" target="B6PUh7vm7_zcToJWxVo1-13">
          <mxGeometry relative="1" as="geometry">
            <Array as="points">
              <mxPoint x="710" y="430" />
              <mxPoint x="710" y="605" />
            </Array>
          </mxGeometry>
        </mxCell>
        <mxCell id="B6PUh7vm7_zcToJWxVo1-11" value="Bank Analyzer" style="whiteSpace=wrap;html=1;rounded=0;" parent="1" vertex="1">
          <mxGeometry x="560" y="390" width="120" height="60" as="geometry" />
        </mxCell>
        <mxCell id="B6PUh7vm7_zcToJWxVo1-13" value="Casper" style="whiteSpace=wrap;html=1;rounded=0;" parent="1" vertex="1">
          <mxGeometry x="200" y="560" width="120" height="60" as="geometry" />
        </mxCell>
        <mxCell id="l6LLySE8dGEOb2_Vdk8C-21" style="edgeStyle=orthogonalEdgeStyle;rounded=0;orthogonalLoop=1;jettySize=auto;html=1;" edge="1" parent="1" source="B6PUh7vm7_zcToJWxVo1-19" target="B6PUh7vm7_zcToJWxVo1-13">
          <mxGeometry relative="1" as="geometry" />
        </mxCell>
        <mxCell id="B6PUh7vm7_zcToJWxVo1-19" value="Store Extractor" style="whiteSpace=wrap;html=1;rounded=0;" parent="1" vertex="1">
          <mxGeometry x="180" y="390" width="120" height="60" as="geometry" />
        </mxCell>
        <mxCell id="l6LLySE8dGEOb2_Vdk8C-39" style="edgeStyle=orthogonalEdgeStyle;rounded=0;orthogonalLoop=1;jettySize=auto;html=1;entryX=1;entryY=0.5;entryDx=0;entryDy=0;" edge="1" parent="1" source="B6PUh7vm7_zcToJWxVo1-22" target="B6PUh7vm7_zcToJWxVo1-13">
          <mxGeometry relative="1" as="geometry">
            <Array as="points">
              <mxPoint x="620" y="590" />
            </Array>
          </mxGeometry>
        </mxCell>
        <mxCell id="B6PUh7vm7_zcToJWxVo1-22" value="Auto Bank Confirmation" style="whiteSpace=wrap;html=1;rounded=0;" parent="1" vertex="1">
          <mxGeometry x="560" y="500" width="120" height="60" as="geometry" />
        </mxCell>
        <mxCell id="B6PUh7vm7_zcToJWxVo1-24" style="edgeStyle=orthogonalEdgeStyle;rounded=0;orthogonalLoop=1;jettySize=auto;html=1;entryX=0;entryY=0.25;entryDx=0;entryDy=0;" parent="1" source="B6PUh7vm7_zcToJWxVo1-19" target="B6PUh7vm7_zcToJWxVo1-22" edge="1">
          <mxGeometry relative="1" as="geometry">
            <Array as="points">
              <mxPoint x="280" y="520" />
              <mxPoint x="560" y="520" />
            </Array>
            <mxPoint x="470" y="520" as="targetPoint" />
          </mxGeometry>
        </mxCell>
        <mxCell id="l6LLySE8dGEOb2_Vdk8C-7" style="edgeStyle=orthogonalEdgeStyle;rounded=0;orthogonalLoop=1;jettySize=auto;html=1;entryX=0.5;entryY=0;entryDx=0;entryDy=0;" edge="1" parent="1" source="l6LLySE8dGEOb2_Vdk8C-4" target="B6PUh7vm7_zcToJWxVo1-9">
          <mxGeometry relative="1" as="geometry" />
        </mxCell>
        <mxCell id="l6LLySE8dGEOb2_Vdk8C-4" value="Eligibility Check" style="rounded=0;whiteSpace=wrap;html=1;" vertex="1" parent="1">
          <mxGeometry x="400" y="290" width="120" height="60" as="geometry" />
        </mxCell>
        <mxCell id="l6LLySE8dGEOb2_Vdk8C-27" style="edgeStyle=orthogonalEdgeStyle;rounded=0;orthogonalLoop=1;jettySize=auto;html=1;" edge="1" parent="1" source="l6LLySE8dGEOb2_Vdk8C-25" target="B6PUh7vm7_zcToJWxVo1-11">
          <mxGeometry relative="1" as="geometry" />
        </mxCell>
        <mxCell id="l6LLySE8dGEOb2_Vdk8C-25" value="Bank Extractor" style="whiteSpace=wrap;html=1;rounded=0;" vertex="1" parent="1">
          <mxGeometry x="560" y="290" width="120" height="60" as="geometry" />
        </mxCell>
        <mxCell id="l6LLySE8dGEOb2_Vdk8C-35" style="edgeStyle=orthogonalEdgeStyle;rounded=0;orthogonalLoop=1;jettySize=auto;html=1;entryX=0;entryY=0.5;entryDx=0;entryDy=0;exitX=0.5;exitY=1;exitDx=0;exitDy=0;" edge="1" parent="1" source="l6LLySE8dGEOb2_Vdk8C-28" target="l6LLySE8dGEOb2_Vdk8C-31">
          <mxGeometry relative="1" as="geometry" />
        </mxCell>
        <mxCell id="l6LLySE8dGEOb2_Vdk8C-28" value="KYB / KYC Extractor" style="whiteSpace=wrap;html=1;rounded=0;" vertex="1" parent="1">
          <mxGeometry x="800" y="290" width="120" height="60" as="geometry" />
        </mxCell>
        <mxCell id="l6LLySE8dGEOb2_Vdk8C-19" value="" style="group" vertex="1" connectable="0" parent="1">
          <mxGeometry x="1130" y="90" width="330" height="160" as="geometry" />
        </mxCell>
        <mxCell id="l6LLySE8dGEOb2_Vdk8C-10" value="" style="rounded=1;whiteSpace=wrap;html=1;" vertex="1" parent="l6LLySE8dGEOb2_Vdk8C-19">
          <mxGeometry width="330" height="160" as="geometry" />
        </mxCell>
        <mxCell id="l6LLySE8dGEOb2_Vdk8C-13" value="Purchase Page" style="text;html=1;align=center;verticalAlign=middle;whiteSpace=wrap;rounded=0;" vertex="1" parent="l6LLySE8dGEOb2_Vdk8C-19">
          <mxGeometry x="135" y="20" width="60" height="30" as="geometry" />
        </mxCell>
        <mxCell id="l6LLySE8dGEOb2_Vdk8C-17" value="Plan&#39;s Details&amp;nbsp;" style="rounded=0;whiteSpace=wrap;html=1;" vertex="1" parent="l6LLySE8dGEOb2_Vdk8C-19">
          <mxGeometry x="40" y="70" width="120" height="60" as="geometry" />
        </mxCell>
        <mxCell id="l6LLySE8dGEOb2_Vdk8C-46" style="edgeStyle=orthogonalEdgeStyle;rounded=0;orthogonalLoop=1;jettySize=auto;html=1;exitX=0;exitY=0.5;exitDx=0;exitDy=0;" edge="1" parent="l6LLySE8dGEOb2_Vdk8C-19" source="l6LLySE8dGEOb2_Vdk8C-45" target="l6LLySE8dGEOb2_Vdk8C-17">
          <mxGeometry relative="1" as="geometry" />
        </mxCell>
        <mxCell id="l6LLySE8dGEOb2_Vdk8C-45" value="Self Serve Tools" style="rounded=0;whiteSpace=wrap;html=1;" vertex="1" parent="l6LLySE8dGEOb2_Vdk8C-19">
          <mxGeometry x="200" y="70" width="120" height="60" as="geometry" />
        </mxCell>
        <mxCell id="l6LLySE8dGEOb2_Vdk8C-12" value="" style="group;shadow=0;" vertex="1" connectable="0" parent="1">
          <mxGeometry x="760" y="90" width="200" height="160" as="geometry" />
        </mxCell>
        <mxCell id="l6LLySE8dGEOb2_Vdk8C-8" value="" style="rounded=1;whiteSpace=wrap;html=1;" vertex="1" parent="l6LLySE8dGEOb2_Vdk8C-12">
          <mxGeometry width="200" height="160" as="geometry" />
        </mxCell>
        <mxCell id="l6LLySE8dGEOb2_Vdk8C-9" value="Funding Application" style="text;html=1;align=center;verticalAlign=middle;whiteSpace=wrap;rounded=0;" vertex="1" parent="l6LLySE8dGEOb2_Vdk8C-12">
          <mxGeometry x="70" y="20" width="60" height="30" as="geometry" />
        </mxCell>
        <mxCell id="l6LLySE8dGEOb2_Vdk8C-18" value="" style="edgeStyle=orthogonalEdgeStyle;rounded=0;orthogonalLoop=1;jettySize=auto;html=1;" edge="1" parent="1" source="B6PUh7vm7_zcToJWxVo1-4" target="l6LLySE8dGEOb2_Vdk8C-17">
          <mxGeometry relative="1" as="geometry" />
        </mxCell>
        <mxCell id="l6LLySE8dGEOb2_Vdk8C-30" style="edgeStyle=orthogonalEdgeStyle;rounded=0;orthogonalLoop=1;jettySize=auto;html=1;entryX=0.5;entryY=0;entryDx=0;entryDy=0;" edge="1" parent="1" source="B6PUh7vm7_zcToJWxVo1-4" target="l6LLySE8dGEOb2_Vdk8C-28">
          <mxGeometry relative="1" as="geometry" />
        </mxCell>
        <mxCell id="B6PUh7vm7_zcToJWxVo1-4" value="Due Diligence Questions" style="rounded=0;whiteSpace=wrap;html=1;" parent="1" vertex="1">
          <mxGeometry x="800" y="160" width="120" height="60" as="geometry" />
        </mxCell>
        <mxCell id="l6LLySE8dGEOb2_Vdk8C-36" style="edgeStyle=orthogonalEdgeStyle;rounded=0;orthogonalLoop=1;jettySize=auto;html=1;" edge="1" parent="1" source="l6LLySE8dGEOb2_Vdk8C-31" target="l6LLySE8dGEOb2_Vdk8C-34">
          <mxGeometry relative="1" as="geometry" />
        </mxCell>
        <mxCell id="l6LLySE8dGEOb2_Vdk8C-31" value="Due Diligence Rules" style="rounded=1;whiteSpace=wrap;html=1;" vertex="1" parent="1">
          <mxGeometry x="1010" y="390" width="120" height="60" as="geometry" />
        </mxCell>
        <mxCell id="l6LLySE8dGEOb2_Vdk8C-32" value="Contracts&lt;div&gt;DropBox Sign&lt;/div&gt;" style="rounded=1;whiteSpace=wrap;html=1;" vertex="1" parent="1">
          <mxGeometry x="1170" y="290" width="120" height="60" as="geometry" />
        </mxCell>
        <mxCell id="l6LLySE8dGEOb2_Vdk8C-37" style="edgeStyle=orthogonalEdgeStyle;rounded=0;orthogonalLoop=1;jettySize=auto;html=1;entryX=1;entryY=0.75;entryDx=0;entryDy=0;" edge="1" parent="1" source="l6LLySE8dGEOb2_Vdk8C-34" target="B6PUh7vm7_zcToJWxVo1-4">
          <mxGeometry relative="1" as="geometry">
            <Array as="points">
              <mxPoint x="980" y="320" />
              <mxPoint x="980" y="205" />
            </Array>
          </mxGeometry>
        </mxCell>
        <mxCell id="l6LLySE8dGEOb2_Vdk8C-34" value="Questions Generator" style="rounded=1;whiteSpace=wrap;html=1;" vertex="1" parent="1">
          <mxGeometry x="1010" y="290" width="120" height="60" as="geometry" />
        </mxCell>
        <mxCell id="l6LLySE8dGEOb2_Vdk8C-42" style="edgeStyle=orthogonalEdgeStyle;rounded=0;orthogonalLoop=1;jettySize=auto;html=1;exitX=0.5;exitY=1;exitDx=0;exitDy=0;" edge="1" parent="1" source="l6LLySE8dGEOb2_Vdk8C-17" target="l6LLySE8dGEOb2_Vdk8C-32">
          <mxGeometry relative="1" as="geometry" />
        </mxCell>
        <mxCell id="l6LLySE8dGEOb2_Vdk8C-47" value="" style="group" vertex="1" connectable="0" parent="1">
          <mxGeometry x="900" y="690" width="440" height="320" as="geometry" />
        </mxCell>
        <mxCell id="l6LLySE8dGEOb2_Vdk8C-48" value="" style="rounded=1;whiteSpace=wrap;html=1;" vertex="1" parent="l6LLySE8dGEOb2_Vdk8C-47">
          <mxGeometry x="-80" width="520" height="320" as="geometry" />
        </mxCell>
        <mxCell id="l6LLySE8dGEOb2_Vdk8C-49" value="Tracking + Retention Page" style="text;html=1;align=center;verticalAlign=middle;whiteSpace=wrap;rounded=0;" vertex="1" parent="l6LLySE8dGEOb2_Vdk8C-47">
          <mxGeometry x="78.11999999999999" y="20" width="173.75" height="60" as="geometry" />
        </mxCell>
        <mxCell id="l6LLySE8dGEOb2_Vdk8C-51" style="edgeStyle=orthogonalEdgeStyle;rounded=0;orthogonalLoop=1;jettySize=auto;html=1;exitX=0;exitY=0.5;exitDx=0;exitDy=0;" edge="1" parent="l6LLySE8dGEOb2_Vdk8C-47" source="l6LLySE8dGEOb2_Vdk8C-52">
          <mxGeometry relative="1" as="geometry">
            <mxPoint x="160" y="200" as="targetPoint" />
          </mxGeometry>
        </mxCell>
        <mxCell id="l6LLySE8dGEOb2_Vdk8C-59" value="Plan&#39;s Details&amp;nbsp;" style="rounded=0;whiteSpace=wrap;html=1;" vertex="1" parent="l6LLySE8dGEOb2_Vdk8C-47">
          <mxGeometry x="60" y="100" width="120" height="60" as="geometry" />
        </mxCell>
        <mxCell id="l6LLySE8dGEOb2_Vdk8C-61" style="edgeStyle=orthogonalEdgeStyle;rounded=0;orthogonalLoop=1;jettySize=auto;html=1;entryX=1;entryY=0.5;entryDx=0;entryDy=0;" edge="1" parent="l6LLySE8dGEOb2_Vdk8C-47" source="l6LLySE8dGEOb2_Vdk8C-60" target="l6LLySE8dGEOb2_Vdk8C-59">
          <mxGeometry relative="1" as="geometry" />
        </mxCell>
        <mxCell id="l6LLySE8dGEOb2_Vdk8C-60" value="Self Serve Tools" style="rounded=0;whiteSpace=wrap;html=1;" vertex="1" parent="l6LLySE8dGEOb2_Vdk8C-47">
          <mxGeometry x="220" y="100" width="120" height="60" as="geometry" />
        </mxCell>
        <mxCell id="l6LLySE8dGEOb2_Vdk8C-62" value="Past Due Self Serve" style="rounded=0;whiteSpace=wrap;html=1;" vertex="1" parent="l6LLySE8dGEOb2_Vdk8C-47">
          <mxGeometry x="60" y="190" width="120" height="60" as="geometry" />
        </mxCell>
        <mxCell id="l6LLySE8dGEOb2_Vdk8C-55" style="edgeStyle=orthogonalEdgeStyle;rounded=0;orthogonalLoop=1;jettySize=auto;html=1;entryX=0;entryY=0.5;entryDx=0;entryDy=0;" edge="1" parent="1" source="l6LLySE8dGEOb2_Vdk8C-53" target="l6LLySE8dGEOb2_Vdk8C-54">
          <mxGeometry relative="1" as="geometry" />
        </mxCell>
        <mxCell id="l6LLySE8dGEOb2_Vdk8C-53" value="Re-Eligible Worker" style="rounded=1;whiteSpace=wrap;html=1;" vertex="1" parent="1">
          <mxGeometry x="40" y="730" width="120" height="60" as="geometry" />
        </mxCell>
        <mxCell id="l6LLySE8dGEOb2_Vdk8C-56" style="edgeStyle=orthogonalEdgeStyle;rounded=0;orthogonalLoop=1;jettySize=auto;html=1;entryX=0.5;entryY=1;entryDx=0;entryDy=0;" edge="1" parent="1" source="l6LLySE8dGEOb2_Vdk8C-54" target="B6PUh7vm7_zcToJWxVo1-13">
          <mxGeometry relative="1" as="geometry" />
        </mxCell>
        <mxCell id="l6LLySE8dGEOb2_Vdk8C-57" style="edgeStyle=orthogonalEdgeStyle;rounded=0;orthogonalLoop=1;jettySize=auto;html=1;" edge="1" parent="1" source="l6LLySE8dGEOb2_Vdk8C-54" target="B6PUh7vm7_zcToJWxVo1-11">
          <mxGeometry relative="1" as="geometry">
            <Array as="points">
              <mxPoint x="290" y="700" />
              <mxPoint x="730" y="700" />
              <mxPoint x="730" y="410" />
            </Array>
          </mxGeometry>
        </mxCell>
        <mxCell id="l6LLySE8dGEOb2_Vdk8C-54" value="Retention Cycle Generator" style="rounded=1;whiteSpace=wrap;html=1;" vertex="1" parent="1">
          <mxGeometry x="200" y="730" width="120" height="60" as="geometry" />
        </mxCell>
        <mxCell id="l6LLySE8dGEOb2_Vdk8C-63" value="" style="group" vertex="1" connectable="0" parent="1">
          <mxGeometry x="1450" y="690" width="440" height="320" as="geometry" />
        </mxCell>
        <mxCell id="l6LLySE8dGEOb2_Vdk8C-64" value="" style="rounded=1;whiteSpace=wrap;html=1;" vertex="1" parent="l6LLySE8dGEOb2_Vdk8C-63">
          <mxGeometry x="-80" width="520" height="320" as="geometry" />
        </mxCell>
        <mxCell id="l6LLySE8dGEOb2_Vdk8C-65" value="Accounts Page" style="text;html=1;align=center;verticalAlign=middle;whiteSpace=wrap;rounded=0;" vertex="1" parent="l6LLySE8dGEOb2_Vdk8C-63">
          <mxGeometry x="78.11999999999999" y="20" width="173.75" height="60" as="geometry" />
        </mxCell>
        <mxCell id="l6LLySE8dGEOb2_Vdk8C-66" style="edgeStyle=orthogonalEdgeStyle;rounded=0;orthogonalLoop=1;jettySize=auto;html=1;exitX=0;exitY=0.5;exitDx=0;exitDy=0;" edge="1" parent="l6LLySE8dGEOb2_Vdk8C-63">
          <mxGeometry relative="1" as="geometry">
            <mxPoint x="160" y="200" as="targetPoint" />
          </mxGeometry>
        </mxCell>
        <mxCell id="l6LLySE8dGEOb2_Vdk8C-67" value="User Details" style="rounded=0;whiteSpace=wrap;html=1;" vertex="1" parent="l6LLySE8dGEOb2_Vdk8C-63">
          <mxGeometry x="60" y="100" width="120" height="60" as="geometry" />
        </mxCell>
        <mxCell id="l6LLySE8dGEOb2_Vdk8C-70" value="Platform Store Connection Management" style="rounded=0;whiteSpace=wrap;html=1;" vertex="1" parent="l6LLySE8dGEOb2_Vdk8C-63">
          <mxGeometry x="220" y="100" width="120" height="60" as="geometry" />
        </mxCell>
        <mxCell id="l6LLySE8dGEOb2_Vdk8C-71" value="Bank / Credit Card Connection Management" style="rounded=0;whiteSpace=wrap;html=1;" vertex="1" parent="l6LLySE8dGEOb2_Vdk8C-63">
          <mxGeometry x="60" y="180" width="120" height="60" as="geometry" />
        </mxCell>
        <mxCell id="l6LLySE8dGEOb2_Vdk8C-72" value="" style="shape=image;verticalLabelPosition=bottom;labelBackgroundColor=default;verticalAlign=top;aspect=fixed;imageAspect=0;image=data:image/png,iVBORw0KGgoAAAANSUhEUgAAAMgAAADICAYAAACtWK6eAAAAAXNSR0IArs4c6QAAAERlWElmTU0AKgAAAAgAAYdpAAQAAAABAAAAGgAAAAAAA6ABAAMAAAABAAEAAKACAAQAAAABAAAAyKADAAQAAAABAAAAyAAAAACbWz2VAAAT20lEQVR4Ae2dXWxUxxXHZxZjLDUtrtRKllrF2ygSEKRi1BeqRsIm2DhSpJgYkI1UxShtQ9VWdZ5iyAdLAwl5inmoAkIqzktwwHzkqQQDXj+FPMW0aWOpkVieitREwmoebMA7PTO7Lou9ez9n5s7d/V/J8u6dM+fM/OaevfM9jOECARAAARAAARAAARAAARAAARAAARAAARAAARAAARAAARAAARAAARAAARAAARAAARAAARAAARAAARAAARAAARAAARAAARAAARAAARAAARAAARAAARAAARAAARAAARAAARAAARAAARAAARAAARAAARAAARAAARAAARAAARAAARAAARAAARAAARAAARAAARAAARAAARAwRYCbUmxar8jtfoyxphY2L+h/+Wrh3zL2YJ7nztF/XCAQn0DqHEQcGBxhnI1Q1td6ZP8zlhEj/Mh43kMGQSDgS8B5BxFTp1vY4mN97PqF5yk3vfTX6purhwIFxkSebev/hK36wQTv6nrwMAifQMCfgNMOIqbOtrHJi7OUDa+3hX8ulQQ/zN/+MBdQGGIgoAhknOYwedGvKhUi+eJVcXBvR4gIEAUBqs07epUeZvEpJa9FYxLnWPOaLM+N3dWoMzWqVHV1cnKAcdHJBOukhLc/knjObjLBL+FN+5CKkw4ickOt7P5Cngpx08OkavpEDwE/eqbh3iSK6b2FcaK4IwDJOcb4KGtuHm3UH5MlRs5VscTUxVa2sHDRiHPIXJPTiYODl8XUVNMShHr+L65e6KX8nmH3Fv5N+QziHBIHtfnEIRlHxhVf/ePJembklTf3HpKrZ0ep4tfplWgNYTvYg6+fJj15DbqcVSFeGxxj18+9GCOBsno7wP5yZD393xxDT2qjOvUGUdUAwfrs0ORb7NhJxoqYPCfbGXGcozLhHdQmzFXeaJTPTjkIu3dPOoeGLt0AxTc1sS6AVHpFps7rco4yA3FIvD7QmV4g0VLuloPI3hVbl+BZW6aSscP1v4mLfCyZvCRn1S0HCd6IjE8sw2S9ui4v1fYIN+MgKId2arSfCCpcD3JuOYhgbdag2rRlLVPU9yQHQ/W1Paql/GXV01gtpA7vueUgdQjYepZsVFMfFOv27bu8vOAgy4mk/buw0I7jwt6bPuHycMtBOLtjkUfBoi2LpnircWPcgg3jmQhmwC0HYeyTYMnWISVsOqOOBENHAgTcchDB8/YY8C2NOvhlj3H6LbnlIM3NlwgpTZSzddHg18HBvBrBt2USdlJFwCkHUTNHOZNOYvPaSpPyZkrT622aNWXLwlu4WCyYSr1rep1yEAVn+55h6s2/YRlUO9n8XJx665BaM2HZuGZz8gdmXrPOSnXz7PGfflF5o54/O+cgvGvnXdbc8izN6L1pHfytf+bY1Ss3xMhA1rptTQZpsdMMsftIk7qVakg3X7fu65UB9XnHOQeRmFVVS/Ah+mjyl1CaWnnJRVoZPkO7p/StDEzJnUWRM5ZSk7qNJTq6YicdRGZH/RIydjJ61mLFXEu/whfT2svFj40XaLpJPhaBqpFp4wupu4EuZx1ElUH3zmP032Kv1vKSp16u1wb2L7+biu/b+/VWs+RS5QbcFcZpB+Fde+6w7p429syuffRQjtPf3ZAPZ4HkZ0LGeVRc8PfoTfK+uHK249EAx7898bMxSuFx+otfTZVvo+09WxzPsZHkOblpg1dOA+6sOE2VtOFyNY2p9gRnZ0hvi5du3zDOPqAHZT/v2hf/ofM1pkegvFnDJdK2NaLGafqR6k1TniPms2q01DnIUi7K4xbyVz27dI8JQT04vLDkGP+/Tx9K7QnaiCDuJdgB/s4ZWfVL1UVrRIapXfIOJTrojwRVbdWPzFiqMqo5sal1kLAc1PjG1SsnNKyVmCcdg+Qk8lc5VZc4OHCaHvqhQInOiC7sbcyY022QQAUZUEhWEWg/rCHWtevn9JCcoGhR9+ltUT1cBwanxLXzQ3UwsBiQYGOKNYyDLBUv7+6/QVWw39Lugn9Yuhfpv9ya6NrEaTZ5ZVbtIRxJCSK5TqDhHGSpQPjRcfkWkb08ca922mD7/bhKEN9NAg3rILI4+NtnZMN1J32kBmmsq09ulIBZwbEYOhm5oR1Elkipsc07qV1xM1YJyY0SaD/hNM/jipX/Oo3c8A4iy1V1C8uBsCc2HIlVzqV5XF+q/WxvfZmNpQuRnSAABykXg+rl+tWbb5C7bKZbcapccpxhgJ360xSqXE4847ESAQdZhk+9TegMEbpNo/Gxrmx9LcSKxSK1keEgVYpOTrenBnwnBR2vEhzmVmkh1sG9Q2EiQdYdAnAQj7JQvVxy/lXsS5ymqS4DsdVAgXUCcBA/5Htf/z31cL1CYjN+ot7h4hRN9TgmPplY7y2HUJcIwEF8SoNv3PgtTVEZpbfJ5rKj+MSoGfwYdQC8yqbPUy9XY561UZOMwwFwkBCFIx2FxOO2S0hFebsheQY8LqcJwEHCFk93zwhFidvDJa1uZZOf5OQHXO4SaJjp7rqLQB6OWT7/r490x3kTXGLb+j9gq/572dSiJDquIMseFNvY9Ym3qJq4PRALWvfCtu3Ks6bMHdppphAoTh0KwUFiFqpauMXFX2lOV1ssVXKqy/Y9nWrbo1iKSpFLvWZiP32LupKwMhUFaj/J3jx5hnrMzopKte5/hoNoKKPywyiX9Ma7qEtZrVmJqEXNA8vwYYou32o0BmPkuk0/BsNpXDAWhQYcJAq1KnHKS1rfqxIU8hZtrRNy9xBVhZo8O0aGdLwtAqZXfEzL7UbrfdUhHCTg4xBETFW3mMiT7Nog8h4y06x5TZ/aQM9DSAapk2eL/DR9zMrvCVzTLCNy9eoocBDNT5Raglv83gCtNnyLVP84hvq7VO8fZ79+7TD/ycY7lXrUYOP0hT+Se/TS/WxlWGKfObvMOl94l3fvzieWBgOG4SAGoEqVpYf4/A36GPdtMkNvk66lt0n5jXGR9LZKO85dsrOBto2tl8Y8HMTgE1bu4RqjRu2mWGbkQ7co+lgmM0SudyiWLluRaXpOeWDVlkUjduAgRrA+VKrWhNxfGCUnefHh3Ub5xAfpTTKe5tzCQSyVHvVyybES2WZonEseyrp6zYal6mEaM46pJrZKbe/ru6nRfZjMFWyZTNyOHDy9v/Cl7AJP6/5heIMk8BTRmvVRMku9UA10qZkCPVtMTacxRRJvEFNkPfRWbDc07yFWX0Gyo+Lqlf1pyxQcJKESK2839G5C5pMxK9jLyRiObhVVrOjsYscUU1NNbPGb59jU+ZcbpgEvzxrp2bMvLTOE4SCxH3M9CsrTVD4lbS16NDqt5TYNfnakoXcLVSxHnqPyyPOsI8kxnYx22hIpZ9qIDv14g+igqEFHeQrJlAZVYVTQfC8apS/N52oPE1GLbArOIGnSklEoiU9AcNn1a/qapRWFJ+noh5las29La1uKAzRm87zpxNCcLZnnDuN2YhjAGyQGPF1R5c7whqaiyDfEZToE9TO2uJhnq3/4Be/qCnRwkBrYu/+d9WzVKnkOipwmY+ZB3ta/k2/fdUkXS9164CC6iYbUR7/YQzQB8XTIaP7i1FtEXcld/oLBJCidOUMTJWkZ75mdwVJhXwqNdPvMl1kUuWU3dHydYz07B3UoWtKhVjlSm4G+zy3d0/Kfsy1a9BhSAgcxBDaIWrVUVvfacTmlgzbfVmfMB0lECBnVbimKDmrH3AkRzVuU5muVuri9xZIKhYMkRV7a/dffdc7uvUsP7it0jvsWk+ML/Nh4gT2+kSZeMo3TZMSJJIvByzbaIF50DIfJg3bIBPUY6bj4Zpur+Eq/+uJzHSlXOugoPBd3SsEbRFsJR1K0PlKs5ZFoPbhN55DmS/bU9P3lqYn2PaO2KooW12AsOIhBuAFU63GQbf0fB7ClXUQ13GWbR8clWKcONbp1wEF0Ew2or9wwbQko7i2WWXXZW8BgKBfDmrS3u3gAKhxEU+mGViPUlj2ho62MIN5NcmZseUT++Mp0RbjDuab2WATbNaLAQWqAMX6ba1mfPsffHh8xnlYfA2oBmI5eLT1MfFIbLhgOEo6XTumtsZVx5tIUjdnY+TE1nSVGwuAgMeAlHlXwfOJpeJiAwsOPkT+tjRzTUEQ4iCGwXmrV1HYvgaBhxWI+qKh5OX5Hhw2xe/cqHXp06YCD6CJpX09BjWrbt1vd4rb+r6oHhLy78T9ODV7DQUKWn0Pitx1KC40csm+cSo+mxMBBNIGEmvokAAepz3JFrjQRgINoApmAmrYEbNY2KYRzPVC1Exs8BA4SnJVrkuvUzvGupOra+awrSdGZDjiITppBdTW1zAQV9ZRbWOj0DLcZyGOe8ltOK8/lA62Zt5U1OIgt0hV2tC1o4qyzQm3CH0U24QQYMQ8HMYI1kNLpQFLeQn3ewTZDuY6p+zqYaM00HEQrzjDKxI0w0jVk29Xx0zUCbd0up6E1vj0tTOIno0IDHKQChtWPGdqvSscl2Hu0+YOGhzNaYtQaDkpDtNjLY2XGl99J+jscJKESKK+jmNdifvFBrxY9UZRk+FiUaFXi0NT9D/V0XlRRHvUWHCQqOT3xClrUXL/wvBY9IZWIA4OyDRR/2r6yK/IhzVsRh4NYwVzTyGzNkHABfbbHRJQ9zsbCJdNLOnPJKzSpMDhIUuSl3exTeU3mW9RhmVcn5C+68Uvc+tt6aY8M6Ro9n2Xd3c61PyRIOIjxx8nDQHadvm5NeaLs9fMX1UbYHia1BJ165wxttq1vqotgB1w93JNrAQYlkQnQ5nEFitweWUH1iNOsu6dX90OnqlX3F/LkHJuqm4109y6taf9+pJgWIuENYgGytwltvUCVZrayySujlTfiflarIO8tFDQ7B20Yz2bips1kfLxBTNINoFudwzF5RTZQdwQQDysyQw9gnj3TP03nfORpe6C7YRSo8ZXFxU42NfESHXbzXJi4gWWzG/bx37w5FljesiAcxDLwauZU1eXegvwl1V3VetQcZx/IU528xhvUjvOT54boFKo+7W+LR1Mjv81RVbBNd1VwpZnod+Ag0dlpjUk7LQ5RfeO0VqVeyuSWoUIeY8BvMFbsoP+ttGy21YJTVKSK7yNnHau44dxHOIhDRUIN9luUnKxDSTKZlGlqnHeaNKBDNxrpOihq0yE+0qbKbUVzrCiG3E5iKXVwEEdKSUydpXEF/gtHkmMyGbOsa1evU1sWeeQWVSwPOLaCyofR5MmerpFpW0kPZ0ce3bZ6zQZtC8bCWY8kjTdIJGz6IjWMc0hkgn2UJueQSYaDSAoJXaVqlZrFWt9vjhJf6tLdeSwh1JHNwkEio9MQcfLiCGlpBOegn2LRZ+LkXQ2l4KmiyTMUgUYIqDdHyTl+Z8SAO0rlDiV/Zlv7T/Adu3RN7beaOzTSreKmavjBvTQo1yjVKn5YnWNombFOc6hi6aTpo0uDc8z5mHAoWHxMazxS1+ZYDhAOspyIoe+xG+RyakjzmixNB3mFkjhvKJl61FIa6Wg4anPsczudAXKLKlYASHFFym2Oc6Tn6Qi6viWneINt7zmx9MCJyfNbaIbtq6Srl/5aIug0EWWWZg0fZ5nipTQ2xmsBgYPUIqPpfuxqlfw1PnpmtFpySrOA7w1Tm0Y6S1KOQtU+PiqrU0sOXC2tab0HBzFYchqc4ya9Obb4PXhiZLCXRrTGKSs2u4xLjtHcPJq2wb8wRQ4HCUOriqzaOG0Vp7UTolNNGWfiLnX6z9BkvBuxHlrZ5li9pjPMw0cOOUTrOIYtTFk/Se2hkTBpq4IuFbfgIBGLST2MTM1I3RpRRe1oEZyjUlnZaXPkKC9W3o/1WaaJ0TY/i+JSWiYaxspvOTIcJCRFcerwS6wwe4QevraQUYOIr2iQB4lUS0Yt57333SyNYrexTCZLbZUfsWsTT5bkecuKPMjJhEzMs2d2F+gNuMAydHJtsVhgTWK2nhretXhVuw8HqUalxr3yW8Pcqj+PBnmNJOG2YQIYBwkI2IJzyAb5iYDJgZglAnCQAKBVnZ6Jql2tAaL7iyy1OepgYM0/s+mSgIMEKa/SDuZmulCXnCM3Rr1fuFwjAAfxKRE1aq1tB/MVxibUOAecYwUYV27AQXxLQo5vGLq6e37pNwhoyDLUBiQAB/EDNXWh3U8keniria7i6MlBzBUE4CArkCy/IVqX39H2/UERDqINphlFcBA/rmYGBMtWi0lNMPTLNcLLBOAgeBRAwIMAHMQDjgriouAnEj08Mx89LmLaIAAH8aMsuLnxiaYMzX3C5TIBOIhf6WzfddtPJGL4HJ3XUYgYF9EsEYCD+IF+IC77iUQK52IkUjxEskoADuKDu7SfEz/sIxYumA6y4UfHT4SLBOkkCMBBglCnZaW0cYJcMKTjmqOVgsM6FEGHeQJYDxKQMU1376DFRHkSjzlpkW/2OgItYHIgZokA3iABQZceat5J4jG6ZtWRYzMBTULMAQJwkBCFoJyk64VnaalqnqKFcBTawOGJp56l+GMhzEHUAQKoYkUsBLUn1f2FIYo+RA6zaYUaub5b8JO0pnuskTY5WMEh5TfgIBoKUORy9CbOP/I25rm83NkcFwiAAAiAAAiAAAiAAAiAAAiAAAiAAAiAAAiAAAiAAAiAAAiAAAiAAAiAAAiAAAiAAAiAAAiAAAiAAAiAAAiAAAiAAAiAAAiAAAiAAAiAAAiAAAiAAAiAAAiAAAiAAAiAAAiAAAiAAAiAAAiAAAiAAAiAAAiAAAiAAAiAAAiAAAiAAAiAAAiAAAiAAAiAAAiAAAiAAAiAQA0C/wPCX9+KhKnx9QAAAABJRU5ErkJggg==;" vertex="1" parent="1">
          <mxGeometry x="540" y="920" width="90" height="90" as="geometry" />
        </mxCell>
      </root>
    </mxGraphModel>
  </diagram>
</mxfile>
